<?xml version="1.0" encoding="UTF-8" standalone="no"?>
<!DOCTYPE svg PUBLIC "-//W3C//DTD SVG 1.1//EN"
 "http://www.w3.org/Graphics/SVG/1.1/DTD/svg11.dtd">
<!-- Generated by graphviz version 5.0.0 (0)
 -->
<!-- Pages: 1 -->
<svg width="849pt" height="320pt"
 viewBox="0.00 0.00 849.04 320.11" xmlns="http://www.w3.org/2000/svg" xmlns:xlink="http://www.w3.org/1999/xlink">
<g id="graph0" class="graph" transform="scale(1 1) rotate(0) translate(4 316.11)">
<polygon fill="#ffffff" stroke="transparent" points="-4,4 -4,-316.11 845.04,-316.11 845.04,4 -4,4"/>
<!-- X1 -->
<g id="node1" class="node">
<title>X1</title>
<polygon fill="#ffffff" stroke="black" points="166.06,-296.11 23.06,-296.11 23.06,-43.11 166.06,-43.11 166.06,-296.11"/>
<polygon fill="none" stroke="black" points="23.56,-272.61 23.56,-295.61 166.56,-295.61 166.56,-272.61 23.56,-272.61"/>
<text text-anchor="start" x="86.56" y="-280.41" font-family="arial" font-size="14.00">X1</text>
<polygon fill="none" stroke="black" points="23.56,-249.61 23.56,-272.61 77.56,-272.61 77.56,-249.61 23.56,-249.61"/>
<text text-anchor="start" x="27.56" y="-257.41" font-family="arial" font-size="14.00">D&#45;Sub9</text>
<polygon fill="none" stroke="black" points="77.56,-249.61 77.56,-272.61 127.56,-272.61 127.56,-249.61 77.56,-249.61"/>
<text text-anchor="start" x="81.56" y="-257.41" font-family="arial" font-size="14.00">female</text>
<polygon fill="none" stroke="black" points="127.56,-249.61 127.56,-272.61 166.56,-272.61 166.56,-249.61 127.56,-249.61"/>
<text text-anchor="start" x="131.56" y="-257.41" font-family="arial" font-size="14.00">9&#45;pin</text>
<polygon fill="none" stroke="black" points="23.56,-226.61 23.56,-249.61 63.56,-249.61 63.56,-226.61 23.56,-226.61"/>
<text text-anchor="start" x="39.56" y="-234.41" font-family="arial" font-size="14.00">1</text>
<polygon fill="none" stroke="black" points="63.56,-226.61 63.56,-249.61 126.56,-249.61 126.56,-226.61 63.56,-226.61"/>
<text text-anchor="start" x="81.06" y="-234.41" font-family="arial" font-size="14.00">CTS</text>
<polygon fill="none" stroke="black" points="126.56,-226.61 126.56,-249.61 166.56,-249.61 166.56,-226.61 126.56,-226.61"/>
<text text-anchor="start" x="142.56" y="-234.41" font-family="arial" font-size="14.00">1</text>
<polygon fill="none" stroke="black" points="23.56,-203.61 23.56,-226.61 63.56,-226.61 63.56,-203.61 23.56,-203.61"/>
<text text-anchor="start" x="39.56" y="-211.41" font-family="arial" font-size="14.00">2</text>
<polygon fill="none" stroke="black" points="63.56,-203.61 63.56,-226.61 126.56,-226.61 126.56,-203.61 63.56,-203.61"/>
<text text-anchor="start" x="80.56" y="-211.41" font-family="arial" font-size="14.00">RXD</text>
<polygon fill="none" stroke="black" points="126.56,-203.61 126.56,-226.61 166.56,-226.61 166.56,-203.61 126.56,-203.61"/>
<text text-anchor="start" x="142.56" y="-211.41" font-family="arial" font-size="14.00">2</text>
<polygon fill="none" stroke="black" points="23.56,-180.61 23.56,-203.61 63.56,-203.61 63.56,-180.61 23.56,-180.61"/>
<text text-anchor="start" x="39.56" y="-188.41" font-family="arial" font-size="14.00">3</text>
<polygon fill="none" stroke="black" points="63.56,-180.61 63.56,-203.61 126.56,-203.61 126.56,-180.61 63.56,-180.61"/>
<text text-anchor="start" x="81.06" y="-188.41" font-family="arial" font-size="14.00">TXD</text>
<polygon fill="none" stroke="black" points="126.56,-180.61 126.56,-203.61 166.56,-203.61 166.56,-180.61 126.56,-180.61"/>
<text text-anchor="start" x="142.56" y="-188.41" font-family="arial" font-size="14.00">3</text>
<polygon fill="none" stroke="black" points="23.56,-157.61 23.56,-180.61 63.56,-180.61 63.56,-157.61 23.56,-157.61"/>
<text text-anchor="start" x="39.56" y="-165.41" font-family="arial" font-size="14.00">4</text>
<polygon fill="none" stroke="black" points="63.56,-157.61 63.56,-180.61 126.56,-180.61 126.56,-157.61 63.56,-157.61"/>
<text text-anchor="start" x="80.56" y="-165.41" font-family="arial" font-size="14.00">VDC</text>
<polygon fill="none" stroke="black" points="126.56,-157.61 126.56,-180.61 166.56,-180.61 166.56,-157.61 126.56,-157.61"/>
<text text-anchor="start" x="142.56" y="-165.41" font-family="arial" font-size="14.00">4</text>
<polygon fill="none" stroke="black" points="23.56,-134.61 23.56,-157.61 63.56,-157.61 63.56,-134.61 23.56,-134.61"/>
<text text-anchor="start" x="39.56" y="-142.41" font-family="arial" font-size="14.00">5</text>
<polygon fill="none" stroke="black" points="63.56,-134.61 63.56,-157.61 126.56,-157.61 126.56,-134.61 63.56,-134.61"/>
<text text-anchor="start" x="79.56" y="-142.41" font-family="arial" font-size="14.00">GND</text>
<polygon fill="none" stroke="black" points="126.56,-134.61 126.56,-157.61 166.56,-157.61 166.56,-134.61 126.56,-134.61"/>
<text text-anchor="start" x="142.56" y="-142.41" font-family="arial" font-size="14.00">5</text>
<polygon fill="none" stroke="black" points="23.56,-111.61 23.56,-134.61 63.56,-134.61 63.56,-111.61 23.56,-111.61"/>
<text text-anchor="start" x="39.56" y="-119.41" font-family="arial" font-size="14.00">6</text>
<polygon fill="none" stroke="black" points="63.56,-111.61 63.56,-134.61 126.56,-134.61 126.56,-111.61 63.56,-111.61"/>
<text text-anchor="start" x="85.06" y="-119.41" font-family="arial" font-size="14.00">NC</text>
<polygon fill="none" stroke="black" points="126.56,-111.61 126.56,-134.61 166.56,-134.61 166.56,-111.61 126.56,-111.61"/>
<text text-anchor="start" x="142.56" y="-119.41" font-family="arial" font-size="14.00">6</text>
<polygon fill="none" stroke="black" points="23.56,-88.61 23.56,-111.61 63.56,-111.61 63.56,-88.61 23.56,-88.61"/>
<text text-anchor="start" x="39.56" y="-96.41" font-family="arial" font-size="14.00">7</text>
<polygon fill="none" stroke="black" points="63.56,-88.61 63.56,-111.61 126.56,-111.61 126.56,-88.61 63.56,-88.61"/>
<text text-anchor="start" x="81.06" y="-96.41" font-family="arial" font-size="14.00">RTS</text>
<polygon fill="none" stroke="black" points="126.56,-88.61 126.56,-111.61 166.56,-111.61 166.56,-88.61 126.56,-88.61"/>
<text text-anchor="start" x="142.56" y="-96.41" font-family="arial" font-size="14.00">7</text>
<polygon fill="none" stroke="black" points="23.56,-65.61 23.56,-88.61 63.56,-88.61 63.56,-65.61 23.56,-65.61"/>
<text text-anchor="start" x="39.56" y="-73.41" font-family="arial" font-size="14.00">8</text>
<polygon fill="none" stroke="black" points="63.56,-65.61 63.56,-88.61 126.56,-88.61 126.56,-65.61 63.56,-65.61"/>
<text text-anchor="start" x="81.06" y="-73.41" font-family="arial" font-size="14.00">CTS</text>
<polygon fill="none" stroke="black" points="126.56,-65.61 126.56,-88.61 166.56,-88.61 166.56,-65.61 126.56,-65.61"/>
<text text-anchor="start" x="142.56" y="-73.41" font-family="arial" font-size="14.00">8</text>
<polygon fill="none" stroke="black" points="23.56,-42.61 23.56,-65.61 63.56,-65.61 63.56,-42.61 23.56,-42.61"/>
<text text-anchor="start" x="39.56" y="-50.41" font-family="arial" font-size="14.00">9</text>
<polygon fill="none" stroke="black" points="63.56,-42.61 63.56,-65.61 126.56,-65.61 126.56,-42.61 63.56,-42.61"/>
<text text-anchor="start" x="79.56" y="-50.41" font-family="arial" font-size="14.00">GND</text>
<polygon fill="none" stroke="black" points="126.56,-42.61 126.56,-65.61 166.56,-65.61 166.56,-42.61 126.56,-42.61"/>
<text text-anchor="start" x="142.56" y="-50.41" font-family="arial" font-size="14.00">9</text>
</g>
<!-- W1 -->
<g id="node3" class="node">
<title>W1</title>
<polygon fill="#ffffff" stroke="black" points="517.06,-303.11 310.06,-303.11 310.06,-44.11 517.06,-44.11 517.06,-303.11"/>
<polygon fill="none" stroke="black" points="310.56,-279.61 310.56,-302.61 517.56,-302.61 517.56,-279.61 310.56,-279.61"/>
<text text-anchor="start" x="403.06" y="-287.41" font-family="arial" font-size="14.00">W1</text>
<polygon fill="none" stroke="black" points="310.56,-256.61 310.56,-279.61 340.56,-279.61 340.56,-256.61 310.56,-256.61"/>
<text text-anchor="start" x="318.06" y="-264.41" font-family="arial" font-size="14.00">7x</text>
<polygon fill="none" stroke="black" points="340.56,-256.61 340.56,-279.61 479.56,-279.61 479.56,-256.61 340.56,-256.61"/>
<text text-anchor="start" x="348.06" y="-264.41" font-family="arial" font-size="14.00">0.25 mm² (24 AWG)</text>
<polygon fill="none" stroke="black" points="479.56,-256.61 479.56,-279.61 517.56,-279.61 517.56,-256.61 479.56,-256.61"/>
<text text-anchor="start" x="486.56" y="-264.41" font-family="arial" font-size="14.00">1 m</text>
<text text-anchor="start" x="342.06" y="-243.41" font-family="arial" font-size="14.00"> </text>
<text text-anchor="start" x="313.56" y="-224.41" font-family="arial" font-size="14.00">X1:2:RXD</text>
<text text-anchor="start" x="379.56" y="-224.41" font-family="arial" font-size="14.00"> &#160;&#160;&#160;&#160;1:WH &#160;&#160;&#160;</text>
<text text-anchor="start" x="454.56" y="-224.41" font-family="arial" font-size="14.00">X2:3:TXD</text>
<polygon fill="#000000" stroke="transparent" points="310.56,-216.61 310.56,-218.61 517.56,-218.61 517.56,-216.61 310.56,-216.61"/>
<polygon fill="#ffffff" stroke="transparent" points="310.56,-214.61 310.56,-216.61 517.56,-216.61 517.56,-214.61 310.56,-214.61"/>
<polygon fill="#000000" stroke="transparent" points="310.56,-212.61 310.56,-214.61 517.56,-214.61 517.56,-212.61 310.56,-212.61"/>
<text text-anchor="start" x="314.56" y="-199.41" font-family="arial" font-size="14.00">X1:3:TXD</text>
<text text-anchor="start" x="382.06" y="-199.41" font-family="arial" font-size="14.00"> &#160;&#160;&#160;&#160;2:BN &#160;&#160;&#160;</text>
<text text-anchor="start" x="453.56" y="-199.41" font-family="arial" font-size="14.00">X2:2:RXD</text>
<polygon fill="#000000" stroke="transparent" points="310.56,-191.61 310.56,-193.61 517.56,-193.61 517.56,-191.61 310.56,-191.61"/>
<polygon fill="#895956" stroke="transparent" points="310.56,-189.61 310.56,-191.61 517.56,-191.61 517.56,-189.61 310.56,-189.61"/>
<polygon fill="#000000" stroke="transparent" points="310.56,-187.61 310.56,-189.61 517.56,-189.61 517.56,-187.61 310.56,-187.61"/>
<text text-anchor="start" x="312.56" y="-174.41" font-family="arial" font-size="14.00">X1:5:GND</text>
<text text-anchor="start" x="380.56" y="-174.41" font-family="arial" font-size="14.00"> &#160;&#160;&#160;&#160;3:GN &#160;&#160;&#160;</text>
<text text-anchor="start" x="452.56" y="-174.41" font-family="arial" font-size="14.00">X2:5:GND</text>
<polygon fill="#000000" stroke="transparent" points="310.56,-166.61 310.56,-168.61 517.56,-168.61 517.56,-166.61 310.56,-166.61"/>
<polygon fill="#00ff00" stroke="transparent" points="310.56,-164.61 310.56,-166.61 517.56,-166.61 517.56,-164.61 310.56,-164.61"/>
<polygon fill="#000000" stroke="transparent" points="310.56,-162.61 310.56,-164.61 517.56,-164.61 517.56,-162.61 310.56,-162.61"/>
<text text-anchor="start" x="314.56" y="-149.41" font-family="arial" font-size="14.00">X1:7:RTS</text>
<text text-anchor="start" x="382.06" y="-149.41" font-family="arial" font-size="14.00"> &#160;&#160;&#160;&#160;4:YE &#160;&#160;&#160;</text>
<text text-anchor="start" x="454.56" y="-149.41" font-family="arial" font-size="14.00">X2:8:CTS</text>
<polygon fill="#000000" stroke="transparent" points="310.56,-141.61 310.56,-143.61 517.56,-143.61 517.56,-141.61 310.56,-141.61"/>
<polygon fill="#ffff00" stroke="transparent" points="310.56,-139.61 310.56,-141.61 517.56,-141.61 517.56,-139.61 310.56,-139.61"/>
<polygon fill="#000000" stroke="transparent" points="310.56,-137.61 310.56,-139.61 517.56,-139.61 517.56,-137.61 310.56,-137.61"/>
<text text-anchor="start" x="314.56" y="-124.41" font-family="arial" font-size="14.00">X1:8:CTS</text>
<text text-anchor="start" x="381.06" y="-124.41" font-family="arial" font-size="14.00"> &#160;&#160;&#160;&#160;5:GY &#160;&#160;&#160;</text>
<text text-anchor="start" x="454.56" y="-124.41" font-family="arial" font-size="14.00">X2:7:RTS</text>
<polygon fill="#000000" stroke="transparent" points="310.56,-116.61 310.56,-118.61 517.56,-118.61 517.56,-116.61 310.56,-116.61"/>
<polygon fill="#999999" stroke="transparent" points="310.56,-114.61 310.56,-116.61 517.56,-116.61 517.56,-114.61 310.56,-114.61"/>
<polygon fill="#000000" stroke="transparent" points="310.56,-112.61 310.56,-114.61 517.56,-114.61 517.56,-112.61 310.56,-112.61"/>
<text text-anchor="start" x="313.56" y="-99.41" font-family="arial" font-size="14.00">X1:4:VDC</text>
<text text-anchor="start" x="382.06" y="-99.41" font-family="arial" font-size="14.00"> &#160;&#160;&#160;&#160;6:PK &#160;&#160;&#160;</text>
<text text-anchor="start" x="458.06" y="-99.41" font-family="arial" font-size="14.00">X1:6:NC</text>
<polygon fill="#000000" stroke="transparent" points="310.56,-91.61 310.56,-93.61 517.56,-93.61 517.56,-91.61 310.56,-91.61"/>
<polygon fill="#ff66cc" stroke="transparent" points="310.56,-89.61 310.56,-91.61 517.56,-91.61 517.56,-89.61 310.56,-89.61"/>
<polygon fill="#000000" stroke="transparent" points="310.56,-87.61 310.56,-89.61 517.56,-89.61 517.56,-87.61 310.56,-87.61"/>
<text text-anchor="start" x="313.56" y="-74.41" font-family="arial" font-size="14.00">X2:4:VDC</text>
<text text-anchor="start" x="382.06" y="-74.41" font-family="arial" font-size="14.00"> &#160;&#160;&#160;&#160;7:BU &#160;&#160;&#160;</text>
<text text-anchor="start" x="458.06" y="-74.41" font-family="arial" font-size="14.00">X2:6:NC</text>
<polygon fill="#000000" stroke="transparent" points="310.56,-66.61 310.56,-68.61 517.56,-68.61 517.56,-66.61 310.56,-66.61"/>
<polygon fill="#0066ff" stroke="transparent" points="310.56,-64.61 310.56,-66.61 517.56,-66.61 517.56,-64.61 310.56,-64.61"/>
<polygon fill="#000000" stroke="transparent" points="310.56,-62.61 310.56,-64.61 517.56,-64.61 517.56,-62.61 310.56,-62.61"/>
<text text-anchor="start" x="342.06" y="-49.41" font-family="arial" font-size="14.00"> </text>
</g>
<!-- X1&#45;&#45;W1 -->
<g id="edge1" class="edge">
<title>X1:e&#45;&#45;W1:w</title>
<path fill="none" stroke="#000000" stroke-width="2" d="M166.06,-213.61C230.06,-213.61 246.06,-213.61 310.06,-213.61"/>
<path fill="none" stroke="#ffffff" stroke-width="2" d="M166.06,-215.61C230.06,-215.61 246.06,-215.61 310.06,-215.61"/>
<path fill="none" stroke="#000000" stroke-width="2" d="M166.06,-217.61C230.06,-217.61 246.06,-217.61 310.06,-217.61"/>
</g>
<!-- X1&#45;&#45;W1 -->
<g id="edge3" class="edge">
<title>X1:e&#45;&#45;W1:w</title>
<path fill="none" stroke="#000000" stroke-width="2" d="M166.06,-190.61C229.82,-190.62 245.81,-188.62 310.06,-188.61"/>
<path fill="none" stroke="#895956" stroke-width="2" d="M166.06,-192.61C230.07,-192.61 246.05,-190.61 310.06,-190.61"/>
<path fill="none" stroke="#000000" stroke-width="2" d="M166.06,-194.61C230.32,-194.59 246.3,-192.59 310.06,-192.61"/>
</g>
<!-- X1&#45;&#45;W1 -->
<g id="edge5" class="edge">
<title>X1:e&#45;&#45;W1:w</title>
<path fill="none" stroke="#000000" stroke-width="2" d="M166.06,-143.61C232.28,-144.42 247.06,-164.42 310.06,-163.61"/>
<path fill="none" stroke="#00ff00" stroke-width="2" d="M166.06,-145.61C230.68,-145.61 245.45,-165.61 310.06,-165.61"/>
<path fill="none" stroke="#000000" stroke-width="2" d="M166.06,-147.61C229.07,-146.79 243.84,-166.79 310.06,-167.61"/>
</g>
<!-- X1&#45;&#45;W1 -->
<g id="edge7" class="edge">
<title>X1:e&#45;&#45;W1:w</title>
<path fill="none" stroke="#000000" stroke-width="2" d="M166.06,-97.61C234.54,-99.09 245.45,-140.09 310.06,-138.61"/>
<path fill="none" stroke="#ffff00" stroke-width="2" d="M166.06,-99.61C232.6,-99.61 243.52,-140.61 310.06,-140.61"/>
<path fill="none" stroke="#000000" stroke-width="2" d="M166.06,-101.61C230.67,-100.12 241.58,-141.12 310.06,-142.61"/>
</g>
<!-- X1&#45;&#45;W1 -->
<g id="edge9" class="edge">
<title>X1:e&#45;&#45;W1:w</title>
<path fill="none" stroke="#000000" stroke-width="2" d="M166.06,-74.61C234.29,-76.04 245.67,-115.04 310.06,-113.61"/>
<path fill="none" stroke="#999999" stroke-width="2" d="M166.06,-76.61C232.37,-76.61 243.76,-115.61 310.06,-115.61"/>
<path fill="none" stroke="#000000" stroke-width="2" d="M166.06,-78.61C230.45,-77.17 241.84,-116.17 310.06,-117.61"/>
</g>
<!-- X1&#45;&#45;W1 -->
<g id="edge11" class="edge">
<title>X1:e&#45;&#45;W1:w</title>
<path fill="none" stroke="#000000" stroke-width="2" d="M166.06,-166.61C236.85,-168.65 235.28,-90.65 310.06,-88.61"/>
<path fill="none" stroke="#ff66cc" stroke-width="2" d="M166.06,-168.61C238.85,-168.61 237.27,-90.61 310.06,-90.61"/>
<path fill="none" stroke="#000000" stroke-width="2" d="M166.06,-170.61C240.85,-168.57 239.27,-90.57 310.06,-92.61"/>
</g>
<!-- X2 -->
<g id="node2" class="node">
<title>X2</title>
<polygon fill="#ffffff" stroke="black" points="804.06,-312.11 661.06,-312.11 661.06,-59.11 804.06,-59.11 804.06,-312.11"/>
<polygon fill="none" stroke="black" points="661.56,-288.61 661.56,-311.61 804.56,-311.61 804.56,-288.61 661.56,-288.61"/>
<text text-anchor="start" x="724.56" y="-296.41" font-family="arial" font-size="14.00">X2</text>
<polygon fill="none" stroke="black" points="661.56,-265.61 661.56,-288.61 715.56,-288.61 715.56,-265.61 661.56,-265.61"/>
<text text-anchor="start" x="665.56" y="-273.41" font-family="arial" font-size="14.00">D&#45;Sub9</text>
<polygon fill="none" stroke="black" points="715.56,-265.61 715.56,-288.61 765.56,-288.61 765.56,-265.61 715.56,-265.61"/>
<text text-anchor="start" x="719.56" y="-273.41" font-family="arial" font-size="14.00">female</text>
<polygon fill="none" stroke="black" points="765.56,-265.61 765.56,-288.61 804.56,-288.61 804.56,-265.61 765.56,-265.61"/>
<text text-anchor="start" x="769.56" y="-273.41" font-family="arial" font-size="14.00">9&#45;pin</text>
<polygon fill="none" stroke="black" points="661.56,-242.61 661.56,-265.61 701.56,-265.61 701.56,-242.61 661.56,-242.61"/>
<text text-anchor="start" x="677.56" y="-250.41" font-family="arial" font-size="14.00">1</text>
<polygon fill="none" stroke="black" points="701.56,-242.61 701.56,-265.61 764.56,-265.61 764.56,-242.61 701.56,-242.61"/>
<text text-anchor="start" x="719.06" y="-250.41" font-family="arial" font-size="14.00">CTS</text>
<polygon fill="none" stroke="black" points="764.56,-242.61 764.56,-265.61 804.56,-265.61 804.56,-242.61 764.56,-242.61"/>
<text text-anchor="start" x="780.56" y="-250.41" font-family="arial" font-size="14.00">1</text>
<polygon fill="none" stroke="black" points="661.56,-219.61 661.56,-242.61 701.56,-242.61 701.56,-219.61 661.56,-219.61"/>
<text text-anchor="start" x="677.56" y="-227.41" font-family="arial" font-size="14.00">2</text>
<polygon fill="none" stroke="black" points="701.56,-219.61 701.56,-242.61 764.56,-242.61 764.56,-219.61 701.56,-219.61"/>
<text text-anchor="start" x="718.56" y="-227.41" font-family="arial" font-size="14.00">RXD</text>
<polygon fill="none" stroke="black" points="764.56,-219.61 764.56,-242.61 804.56,-242.61 804.56,-219.61 764.56,-219.61"/>
<text text-anchor="start" x="780.56" y="-227.41" font-family="arial" font-size="14.00">2</text>
<polygon fill="none" stroke="black" points="661.56,-196.61 661.56,-219.61 701.56,-219.61 701.56,-196.61 661.56,-196.61"/>
<text text-anchor="start" x="677.56" y="-204.41" font-family="arial" font-size="14.00">3</text>
<polygon fill="none" stroke="black" points="701.56,-196.61 701.56,-219.61 764.56,-219.61 764.56,-196.61 701.56,-196.61"/>
<text text-anchor="start" x="719.06" y="-204.41" font-family="arial" font-size="14.00">TXD</text>
<polygon fill="none" stroke="black" points="764.56,-196.61 764.56,-219.61 804.56,-219.61 804.56,-196.61 764.56,-196.61"/>
<text text-anchor="start" x="780.56" y="-204.41" font-family="arial" font-size="14.00">3</text>
<polygon fill="none" stroke="black" points="661.56,-173.61 661.56,-196.61 701.56,-196.61 701.56,-173.61 661.56,-173.61"/>
<text text-anchor="start" x="677.56" y="-181.41" font-family="arial" font-size="14.00">4</text>
<polygon fill="none" stroke="black" points="701.56,-173.61 701.56,-196.61 764.56,-196.61 764.56,-173.61 701.56,-173.61"/>
<text text-anchor="start" x="718.56" y="-181.41" font-family="arial" font-size="14.00">VDC</text>
<polygon fill="none" stroke="black" points="764.56,-173.61 764.56,-196.61 804.56,-196.61 804.56,-173.61 764.56,-173.61"/>
<text text-anchor="start" x="780.56" y="-181.41" font-family="arial" font-size="14.00">4</text>
<polygon fill="none" stroke="black" points="661.56,-150.61 661.56,-173.61 701.56,-173.61 701.56,-150.61 661.56,-150.61"/>
<text text-anchor="start" x="677.56" y="-158.41" font-family="arial" font-size="14.00">5</text>
<polygon fill="none" stroke="black" points="701.56,-150.61 701.56,-173.61 764.56,-173.61 764.56,-150.61 701.56,-150.61"/>
<text text-anchor="start" x="717.56" y="-158.41" font-family="arial" font-size="14.00">GND</text>
<polygon fill="none" stroke="black" points="764.56,-150.61 764.56,-173.61 804.56,-173.61 804.56,-150.61 764.56,-150.61"/>
<text text-anchor="start" x="780.56" y="-158.41" font-family="arial" font-size="14.00">5</text>
<polygon fill="none" stroke="black" points="661.56,-127.61 661.56,-150.61 701.56,-150.61 701.56,-127.61 661.56,-127.61"/>
<text text-anchor="start" x="677.56" y="-135.41" font-family="arial" font-size="14.00">6</text>
<polygon fill="none" stroke="black" points="701.56,-127.61 701.56,-150.61 764.56,-150.61 764.56,-127.61 701.56,-127.61"/>
<text text-anchor="start" x="723.06" y="-135.41" font-family="arial" font-size="14.00">NC</text>
<polygon fill="none" stroke="black" points="764.56,-127.61 764.56,-150.61 804.56,-150.61 804.56,-127.61 764.56,-127.61"/>
<text text-anchor="start" x="780.56" y="-135.41" font-family="arial" font-size="14.00">6</text>
<polygon fill="none" stroke="black" points="661.56,-104.61 661.56,-127.61 701.56,-127.61 701.56,-104.61 661.56,-104.61"/>
<text text-anchor="start" x="677.56" y="-112.41" font-family="arial" font-size="14.00">7</text>
<polygon fill="none" stroke="black" points="701.56,-104.61 701.56,-127.61 764.56,-127.61 764.56,-104.61 701.56,-104.61"/>
<text text-anchor="start" x="719.06" y="-112.41" font-family="arial" font-size="14.00">RTS</text>
<polygon fill="none" stroke="black" points="764.56,-104.61 764.56,-127.61 804.56,-127.61 804.56,-104.61 764.56,-104.61"/>
<text text-anchor="start" x="780.56" y="-112.41" font-family="arial" font-size="14.00">7</text>
<polygon fill="none" stroke="black" points="661.56,-81.61 661.56,-104.61 701.56,-104.61 701.56,-81.61 661.56,-81.61"/>
<text text-anchor="start" x="677.56" y="-89.41" font-family="arial" font-size="14.00">8</text>
<polygon fill="none" stroke="black" points="701.56,-81.61 701.56,-104.61 764.56,-104.61 764.56,-81.61 701.56,-81.61"/>
<text text-anchor="start" x="719.06" y="-89.41" font-family="arial" font-size="14.00">CTS</text>
<polygon fill="none" stroke="black" points="764.56,-81.61 764.56,-104.61 804.56,-104.61 804.56,-81.61 764.56,-81.61"/>
<text text-anchor="start" x="780.56" y="-89.41" font-family="arial" font-size="14.00">8</text>
<polygon fill="none" stroke="black" points="661.56,-58.61 661.56,-81.61 701.56,-81.61 701.56,-58.61 661.56,-58.61"/>
<text text-anchor="start" x="677.56" y="-66.41" font-family="arial" font-size="14.00">9</text>
<polygon fill="none" stroke="black" points="701.56,-58.61 701.56,-81.61 764.56,-81.61 764.56,-58.61 701.56,-58.61"/>
<text text-anchor="start" x="717.56" y="-66.41" font-family="arial" font-size="14.00">GND</text>
<polygon fill="none" stroke="black" points="764.56,-58.61 764.56,-81.61 804.56,-81.61 804.56,-58.61 764.56,-58.61"/>
<text text-anchor="start" x="780.56" y="-66.41" font-family="arial" font-size="14.00">9</text>
</g>
<!-- X2&#45;&#45;W1 -->
<g id="edge13" class="edge">
<title>X2:e&#45;&#45;W1:w</title>
<path fill="none" stroke="#000000" stroke-width="2" d="M805.56,-182.61C859.38,-185.02 841.17,-99.83 803.12,-60.49 717.61,32.02 646.47,-48.76 517.01,-46.1 423.75,-42.96 375.38,18.02 311.94,-45.55 305.58,-51.19 301.94,-66.08 309.56,-63.61"/>
<path fill="none" stroke="#0066ff" stroke-width="2" d="M805.56,-184.61C861.34,-184.61 843.12,-99.41 804.56,-59.11 716.1,33.35 644.97,-47.44 517.06,-44.11 425.31,-41.71 376.95,19.27 310.56,-44.11 303.64,-50.71 299.99,-65.61 309.56,-65.61"/>
<path fill="none" stroke="#000000" stroke-width="2" d="M805.56,-186.61C863.3,-184.19 845.08,-98.99 806.01,-57.72 714.6,34.67 643.47,-46.12 517.11,-42.11 426.88,-40.47 378.51,20.51 309.18,-42.66 301.7,-50.24 298.05,-65.13 309.56,-67.61"/>
</g>
<!-- W1&#45;&#45;X1 -->
<g id="edge12" class="edge">
<title>W1:e&#45;&#45;X1:w</title>
<path fill="none" stroke="#000000" stroke-width="2" d="M518.56,-88.61C537.28,-91.03 530.36,-59.01 516.16,-45.53 437.43,32.79 56.49,-12.81 24.97,-44.53 0.38,-68.34 -10.82,-123.01 22.56,-120.61"/>
<path fill="none" stroke="#ff66cc" stroke-width="2" d="M518.56,-90.61C539.23,-90.61 532.31,-58.59 517.56,-44.11 437.2,34.77 56.25,-10.82 23.56,-43.11 -1.58,-67.93 -12.78,-122.61 22.56,-122.61"/>
<path fill="none" stroke="#000000" stroke-width="2" d="M518.56,-92.61C541.19,-90.18 534.27,-58.16 518.96,-42.68 436.96,36.76 56.02,-8.83 22.16,-41.68 -3.54,-67.53 -14.73,-122.2 22.56,-124.61"/>
</g>
<!-- W1&#45;&#45;X2 -->
<g id="edge2" class="edge">
<title>W1:e&#45;&#45;X2:w</title>
<path fill="none" stroke="#000000" stroke-width="2" d="M517.06,-213.61C580.33,-213.78 596.18,-206.78 661.06,-206.61"/>
<path fill="none" stroke="#ffffff" stroke-width="2" d="M517.06,-215.61C581.14,-215.61 596.99,-208.61 661.06,-208.61"/>
<path fill="none" stroke="#000000" stroke-width="2" d="M517.06,-217.61C581.94,-217.44 597.79,-210.44 661.06,-210.61"/>
</g>
<!-- W1&#45;&#45;X2 -->
<g id="edge4" class="edge">
<title>W1:e&#45;&#45;X2:w</title>
<path fill="none" stroke="#000000" stroke-width="2" d="M517.06,-188.61C585.54,-190.09 596.45,-231.09 661.06,-229.61"/>
<path fill="none" stroke="#895956" stroke-width="2" d="M517.06,-190.61C583.6,-190.61 594.52,-231.61 661.06,-231.61"/>
<path fill="none" stroke="#000000" stroke-width="2" d="M517.06,-192.61C581.67,-191.12 592.58,-232.12 661.06,-233.61"/>
</g>
<!-- W1&#45;&#45;X2 -->
<g id="edge6" class="edge">
<title>W1:e&#45;&#45;X2:w</title>
<path fill="none" stroke="#000000" stroke-width="2" d="M517.06,-163.61C580.6,-163.67 596.55,-159.67 661.06,-159.61"/>
<path fill="none" stroke="#00ff00" stroke-width="2" d="M517.06,-165.61C581.09,-165.61 597.04,-161.61 661.06,-161.61"/>
<path fill="none" stroke="#000000" stroke-width="2" d="M517.06,-167.61C581.57,-167.55 597.52,-163.55 661.06,-163.61"/>
</g>
<!-- W1&#45;&#45;X2 -->
<g id="edge8" class="edge">
<title>W1:e&#45;&#45;X2:w</title>
<path fill="none" stroke="#000000" stroke-width="2" d="M517.06,-138.61C582.56,-140.23 591.63,-92.23 661.06,-90.61"/>
<path fill="none" stroke="#ffff00" stroke-width="2" d="M517.06,-140.61C584.52,-140.61 593.6,-92.61 661.06,-92.61"/>
<path fill="none" stroke="#000000" stroke-width="2" d="M517.06,-142.61C586.49,-140.98 595.56,-92.98 661.06,-94.61"/>
</g>
<!-- W1&#45;&#45;X2 -->
<g id="edge10" class="edge">
<title>W1:e&#45;&#45;X2:w</title>
<path fill="none" stroke="#000000" stroke-width="2" d="M517.06,-113.61C581.06,-113.61 597.06,-113.61 661.06,-113.61"/>
<path fill="none" stroke="#999999" stroke-width="2" d="M517.06,-115.61C581.06,-115.61 597.06,-115.61 661.06,-115.61"/>
<path fill="none" stroke="#000000" stroke-width="2" d="M517.06,-117.61C581.06,-117.61 597.06,-117.61 661.06,-117.61"/>
</g>
<!-- W1&#45;&#45;X2 -->
<g id="edge14" class="edge">
<title>W1:e&#45;&#45;X2:w</title>
<path fill="none" stroke="#000000" stroke-width="2" d="M517.06,-63.61C590.81,-65.59 591.31,-138.59 661.06,-136.61"/>
<path fill="none" stroke="#0066ff" stroke-width="2" d="M517.06,-65.61C588.81,-65.61 589.31,-138.61 661.06,-138.61"/>
<path fill="none" stroke="#000000" stroke-width="2" d="M517.06,-67.61C586.81,-65.62 587.31,-138.62 661.06,-140.61"/>
</g>
</g>
</svg>
